# xmcd
#
# Track frame offsets:
#	150
#	16636
#	40464
#	61552
#	82132
#	109064
#	133653
#	154683
#	178745
#	200379
#	219228
#	238364
#	258366
#	278899
#
# Disc length: 4155 seconds
#
# Revision: 0
# Processed by: cddbd v1.4PL0 Copyright (c) Steve Scherf et al.
# Submitted via: dBpowerAMP V4.0
#
DISCID=c010390e
DTITLE=Tom Waits - Strange Temptation Disc One
DYEAR=1999
DGENRE=Blues
TTITLE0=Walk Away
TTITLE1=16 Shells
TTITLE2=Downtown Train
TTITLE3=Temptation
TTITLE4=Gun Street Girl
TTITLE5=I Can't Wait to Get off Work
TTITLE6=Texas Traditions
TTITLE7=A Little Rain
TTITLE8=Tango Till They Score
TTITLE9=House Where Nobody Lives
TTITLE10=Hang Down Your Head
TTITLE11=Heart Attack and Vine
TTITLE12=Jockey Full of Bourbon
TTITLE13=Hold On
EXTD=Live from Austin Texas\nParamount Theater\nMarch 20, 1999
EXTT0=
EXTT1=
EXTT2=
EXTT3=
EXTT4=
EXTT5=
EXTT6=
EXTT7=
EXTT8=
EXTT9=
EXTT10=
EXTT11=
EXTT12=
EXTT13=
PLAYORDER=
